<?xml version="1.0"?>
<svg xmlns="http://www.w3.org/2000/svg" xmlns:xlink="http://www.w3.org/1999/xlink" xmlns:svgjs="http://svgjs.com/svgjs" version="1.1" width="512" height="512" x="0" y="0" viewBox="0 0 512.354 512.354" style="enable-background:new 0 0 512 512" xml:space="preserve" class=""><g><g xmlns="http://www.w3.org/2000/svg"><path d="m497.513 90.178-43.213-46.814c-20.73-22.458-55.528-24.106-78.296-3.868-297.349 264.31-254.507 225.808-267.95 239.251-17.673 17.674-24.887 43.716-18.825 67.964 3.806 15.226-.722 31.577-11.816 42.676l-72.933 71.935c-9.52 9.39-2.863 25.679 10.533 25.679h97c3.978 0 7.793-1.58 10.606-4.393l24-24c11.101-11.1 27.457-15.63 42.683-11.823 24.484 6.121 50.468-1.328 67.964-18.825 13.355-13.355-24.686 27.9 240.426-262.067 19.604-21.439 19.554-54.337-.179-75.715zm-391.713 366.823h-54.217l36.358-35.86 26.859 26.86zm90.779-39.32c-20.462-5.116-42.145-1.203-59.479 10.194l-28.96-28.96c11.397-17.333 15.309-39.016 10.194-59.479-3.377-13.508.339-27.976 9.707-38.194l106.732 106.732c-10.217 9.367-24.685 13.084-38.194 9.707zm278.974-272.031-220.025 240.653-105.659-105.659 246.066-218.726c10.5-9.332 26.794-8.528 36.322 1.795 0-.1-.223-.242 43.212 46.814 9.221 9.99 9.258 25.09.084 35.123z" fill="#f36e0d" data-original="#000000" style="" class=""/><path d="m416.013 457.001h-144c-8.284 0-15 6.716-15 15s6.716 15 15 15h144c8.284 0 15-6.716 15-15s-6.716-15-15-15z" fill="#f36e0d" data-original="#000000" style="" class=""/></g></g></svg>
